PathFileType	4	(X/Y/Z)	 s01c0101.trc
DataRate	CameraRate	NumFrames	NumMarkers	Units	OrigDataRate	OrigDataStartFrame	OrigNumFrames
200	200	7	47	mm	200	251	2000
Frame#	Time	racr			lacr			c7			jug			rlel			rdr			llel			ldr			s2			lic			ric			lasi			rasi			rpsi			lpsi			rgt			lgt			rth1			rth2			rth3			rth4			rlfc			rsh1			rsh2			rsh3			rsh4			rlmal			rmmal			rcal			rtoe			rmt5			lth1			lth2			lth4			lth3			llfc			lsh1			lsh2			lsh3			lsh4			llmal			lcal			ltoe			lmt5			SBIKE			LBIKE			RBIKE			
		X1	Y1	Z1	X2	Y2	Z2	X3	Y3	Z3	X4	Y4	Z4	X5	Y5	Z5	X6	Y6	Z6	X7	Y7	Z7	X8	Y8	Z8	X9	Y9	Z9	X10	Y10	Z10	X11	Y11	Z11	X12	Y12	Z12	X13	Y13	Z13	X14	Y14	Z14	X15	Y15	Z15	X16	Y16	Z16	X17	Y17	Z17	X18	Y18	Z18	X19	Y19	Z19	X20	Y20	Z20	X21	Y21	Z21	X22	Y22	Z22	X23	Y23	Z23	X24	Y24	Z24	X25	Y25	Z25	X26	Y26	Z26	X27	Y27	Z27	X28	Y28	Z28	X29	Y29	Z29	X30	Y30	Z30	X31	Y31	Z31	X32	Y32	Z32	X33	Y33	Z33	X34	Y34	Z34	X35	Y35	Z35	X36	Y36	Z36	X37	Y37	Z37	X38	Y38	Z38	X39	Y39	Z39	X40	Y40	Z40	X41	Y41	Z41	X42	Y42	Z42	X43	Y43	Z43	X44	Y44	Z44	X45	Y45	Z45	X46	Y46	Z46	X47	Y47	Z47	
251	1.2550	511.000042	1341.166401	-126.981407	485.825858	1350.210643	-419.665998	434.137809	1407.435416	-259.634148	460.936559	1242.125751	-265.120239	587.972507	1074.096402	-33.010782	724.980168	848.539617	-66.453279	539.801788	1074.719374	-530.470504	716.230671	886.808366	-455.659535	-82.720742	1169.443266	-230.592127	92.447448	1185.310121	-403.485599	89.385128	1152.141289	-85.638200	88.699477	1131.303128	-384.066153	107.646032	1104.918092	-111.395538	-47.460552	1203.346042	-176.331653	-55.527380	1216.624019	-281.753066	21.326063	1040.104150	-55.043843	34.523734	1074.031828	-441.586301	110.409849	937.845801	-48.001406	166.642512	877.121556	-53.136856	222.371142	806.590405	-64.793390	206.672674	911.306969	-66.980225	258.918472	698.051915	-89.804118	192.342612	599.581750	-58.870257	157.683793	522.408668	-63.744584	112.895108	445.965663	-76.471220	199.500762	503.465916	-102.817741	45.102249	337.926813	-98.898092	98.439948	338.373781	-173.093242	-1.058135	325.244907	-158.941709	232.207237	184.849084	-130.423625	122.664383	206.654710	-69.500603	134.287125	993.743102	-441.461447	233.060842	984.143398	-438.705988	230.979014	1031.980794	-423.536727	299.611194	953.983043	-415.151675	392.298137	899.777610	-392.359067	332.624764	803.739871	-420.344792	303.075254	721.495191	-417.058365	271.325847	642.326180	-406.416404	355.302888	703.990414	-389.275222	225.167124	524.564222	-395.409391	173.709385	481.790850	-354.160805	450.211990	486.568352	-375.580548	345.104249	456.351526	-437.456386	-223.210201	893.344372	-249.531696	-12.159605	84.167499	-453.514926	-20.439312	81.033724	-53.744342	
252	1.2600	511.238724	1341.214421	-126.900863	485.976543	1350.844986	-419.890127	434.414726	1407.704820	-259.523949	461.235446	1242.333017	-265.221356	588.143250	1073.968918	-33.153689	725.038659	848.371337	-66.540292	540.899251	1075.472914	-530.263874	716.415261	886.980774	-455.428096	-82.257999	1169.483196	-230.446646	92.850566	1185.477274	-403.511382	89.929195	1152.101502	-85.578094	89.170276	1131.432724	-383.990997	108.231812	1105.067826	-111.383904	-47.028173	1203.441287	-176.208269	-55.116742	1216.653902	-281.663068	22.067878	1040.139877	-54.998905	34.975215	1074.057817	-441.376009	111.323026	938.243615	-48.183047	167.620786	877.718032	-53.392015	223.517302	807.200271	-64.989539	207.597043	911.943906	-67.177450	260.151557	698.580680	-89.905067	193.226172	600.403705	-59.041732	158.228804	523.387660	-63.903316	113.106250	447.158322	-76.612159	199.963949	504.172236	-103.010260	44.839155	339.392751	-99.029369	98.464242	339.778031	-173.091119	-1.428645	326.858430	-159.067293	231.205479	185.444868	-130.425942	121.821380	207.764973	-69.503695	134.665169	993.430693	-441.434876	232.541496	983.344099	-438.498024	231.401197	1031.464376	-423.388439	299.909569	953.385957	-415.063290	392.453880	898.685815	-392.139536	333.069192	801.563776	-419.943200	303.424118	720.225128	-416.978062	271.857745	640.894240	-406.266791	355.736163	702.727786	-389.179568	225.880285	522.958675	-395.348771	174.546857	479.991863	-354.092201	451.048803	485.762787	-375.628557	346.050755	455.146031	-437.506014	-223.143569	893.362933	-249.576973	-12.147228	84.179345	-453.538235	-20.440661	81.053341	-53.736627	
253	1.2650	511.493706	1341.279593	-126.774089	486.214505	1351.475729	-419.977090	434.706108	1407.909502	-259.383038	461.506774	1242.555560	-265.329970	588.323006	1073.786503	-33.382810	725.110155	848.230206	-66.599287	541.927903	1076.080935	-529.986548	716.544049	887.185403	-455.167345	-81.753463	1169.452171	-230.358848	93.055733	1185.568794	-403.507577	90.433050	1152.108146	-85.524045	89.623463	1131.571111	-384.039247	108.689397	1105.198383	-111.442651	-46.528704	1203.454037	-176.087052	-54.707576	1216.688806	-281.555089	22.932589	1040.063018	-54.838384	35.402492	1074.081709	-441.230474	112.365734	938.745180	-48.358956	168.664749	878.246495	-53.667365	224.603381	807.815250	-65.240898	208.514249	912.477893	-67.533191	261.278088	699.151990	-90.143073	194.008594	601.233759	-59.292587	158.692195	524.386160	-64.121608	113.225171	448.347806	-76.876714	200.377284	505.037642	-103.211871	44.418681	340.941020	-99.173083	97.884264	340.847642	-173.308952	-1.872456	328.450956	-159.211650	230.259589	186.059898	-130.388926	120.889239	208.772841	-69.650933	135.003378	993.095702	-441.431743	232.012097	982.531331	-438.289337	231.642083	1030.972442	-423.479327	300.147564	952.717106	-414.968110	392.592455	897.341917	-391.929398	333.404138	800.106942	-419.881067	303.820657	718.754698	-416.908680	272.319573	639.480183	-406.278594	356.132178	701.400891	-389.127111	226.577093	521.268511	-395.286858	175.380717	478.128582	-354.126594	451.911961	484.970893	-375.595315	346.931587	453.944671	-437.579855	-223.096214	893.380085	-249.628121	-12.137916	84.179051	-453.518386	-20.420662	81.052220	-53.725346	
254	1.2700	511.747241	1341.341886	-126.582485	486.625575	1352.072109	-419.845175	435.046480	1408.147399	-259.174853	461.818806	1242.853589	-265.440090	588.426537	1073.591865	-33.624058	725.163626	848.084340	-66.644902	542.762456	1076.594537	-529.806121	716.590798	887.338993	-454.950769	-81.232064	1169.474261	-230.183525	93.300039	1185.716880	-403.582392	90.917478	1152.157423	-85.529127	90.095720	1131.754746	-384.123432	109.167423	1105.411641	-111.545285	-46.093118	1203.548637	-175.994609	-54.286383	1216.730585	-281.463486	23.758773	1040.013661	-54.848463	35.804068	1074.058977	-441.079747	113.271301	939.156375	-48.626844	169.673248	878.788877	-54.102684	225.385173	808.481876	-65.588063	209.474780	912.984445	-67.915281	262.467393	699.757693	-90.447342	194.793475	602.161952	-59.511948	159.003843	525.506315	-64.388340	113.228531	449.529950	-77.117689	200.629455	505.909510	-103.402419	43.934805	342.443212	-99.298780	97.886617	342.361458	-173.202379	-2.393812	330.028005	-159.363043	229.267162	186.842047	-130.322553	119.996368	210.081788	-69.646103	135.302074	992.733833	-441.447730	231.472580	981.705012	-438.079927	232.014422	1030.381549	-423.425265	300.302289	951.944072	-414.987903	392.671704	896.034693	-391.764462	333.659962	798.658284	-419.849751	304.282869	717.201830	-416.905501	272.789910	637.952402	-406.285589	356.512676	699.942359	-389.070729	227.364704	519.573659	-395.320095	176.180446	476.172990	-354.074433	452.644135	484.102565	-375.643787	347.933558	452.700964	-437.541519	-223.061014	893.386372	-249.666846	-12.138252	84.182911	-453.531934	-20.422701	81.053082	-53.736987	
255	1.2750	512.051906	1341.438007	-126.357823	487.100689	1352.481291	-419.567434	435.374393	1408.391851	-258.914676	462.126518	1243.144925	-265.493101	588.541381	1073.417765	-33.868553	725.195957	847.925870	-66.738400	543.317566	1076.924687	-529.651959	716.606531	887.506647	-454.825186	-80.732577	1169.479502	-230.047809	93.588153	1185.879300	-403.661101	91.381958	1152.298375	-85.535156	90.474086	1131.942094	-384.206271	109.710920	1105.591378	-111.641961	-45.718066	1203.548307	-175.812742	-53.869155	1216.781383	-281.390465	24.598343	1039.952096	-54.853263	36.032536	1074.132076	-441.485875	114.292332	939.609016	-48.955206	170.689426	879.258347	-54.543454	226.680013	808.997402	-65.967592	210.387122	913.486044	-68.461512	263.618233	700.265453	-90.861107	195.444166	603.077022	-59.793260	159.385665	526.568434	-64.707820	113.226937	450.911274	-77.382756	200.897861	506.768273	-103.691081	43.365084	343.938396	-99.461052	97.225917	343.542928	-173.458784	-2.993277	331.596516	-159.513473	228.155732	187.575342	-130.362336	118.987151	211.241837	-69.789441	135.563787	992.342923	-441.478307	230.922881	980.865059	-437.869795	232.264239	1029.777205	-423.997806	300.346939	951.137471	-415.025757	392.705714	894.617821	-391.704175	333.910315	797.073799	-419.859224	304.692128	715.517060	-416.918194	273.283362	636.263730	-406.290733	356.875191	698.373673	-389.028096	228.063980	517.689997	-395.337088	177.150955	474.017070	-354.014525	453.420661	483.288869	-375.727068	348.861225	451.402428	-437.620905	-223.009043	893.420440	-249.726294	-12.122543	84.194249	-453.541995	-20.417141	81.068092	-53.730993	
256	1.2800	512.432476	1341.454527	-126.046687	487.747110	1352.840726	-419.130133	435.726038	1408.651680	-258.690033	462.516985	1243.459038	-265.508159	588.653462	1073.284344	-34.088588	725.232125	847.767747	-66.840918	543.639450	1077.179583	-529.609773	716.610706	887.668063	-454.782565	-80.244866	1169.486587	-229.977259	93.874781	1186.128891	-403.737447	91.892904	1152.469228	-85.561063	90.955449	1132.112020	-384.321263	110.340694	1105.747654	-111.733588	-45.257445	1203.597801	-175.719315	-53.442596	1216.839312	-281.338729	25.468791	1039.957467	-54.922698	36.338909	1074.114394	-441.363051	115.331021	940.073272	-49.313719	171.782338	879.785734	-55.037889	227.565868	809.608742	-66.569529	211.313392	914.041925	-69.093111	264.650216	700.846580	-91.315746	196.123222	603.979620	-60.113348	159.652986	527.731214	-64.968546	113.180862	452.228701	-77.586335	201.095195	507.596829	-103.947389	42.738589	345.493145	-99.640614	96.146134	344.686155	-173.695182	-3.670112	333.159439	-159.657544	227.148351	188.512942	-130.326753	118.036773	212.411466	-69.899152	135.792838	991.922919	-441.519273	230.362938	980.011392	-437.658942	232.460768	1029.159324	-424.111048	300.373552	950.122387	-415.076614	392.702286	893.033253	-391.639729	334.142622	795.374758	-419.890656	304.998125	713.852035	-417.016104	273.720265	634.420756	-406.340182	357.231623	696.728404	-389.023041	228.738931	515.772455	-395.358939	177.946474	471.862762	-354.106811	454.235660	482.476456	-375.742046	349.749648	449.954921	-437.689420	-222.975293	893.432548	-249.793285	-12.122521	84.173638	-453.524130	-20.430666	81.072954	-53.741006	
257	1.2850	512.832417	1341.487169	-125.690685	488.502758	1353.146815	-418.533359	436.101858	1408.974330	-258.414743	462.957173	1243.781479	-265.498063	588.744528	1073.160264	-34.282583	725.254885	847.659377	-66.935680	543.649955	1077.316885	-529.630513	716.456242	887.707829	-454.673067	-79.690101	1169.508123	-229.917561	94.112025	1186.356960	-403.804953	92.426531	1152.673508	-85.609215	91.386937	1132.426371	-384.444769	110.874271	1105.929527	-111.897116	-44.768312	1203.678628	-175.667449	-53.010950	1216.911678	-281.291831	26.223463	1040.052157	-55.105791	36.653113	1074.054504	-441.277421	116.410428	940.658308	-49.360253	172.835783	880.297113	-55.676267	228.668115	810.186537	-67.170689	212.233859	914.624774	-69.860375	265.770776	701.425566	-91.888746	196.858740	604.916093	-60.494665	159.962036	528.705281	-65.267438	113.021166	453.631769	-77.740855	201.232116	508.576595	-104.272199	42.028878	347.088729	-99.711123	95.559119	346.085358	-173.777839	-4.417314	334.719597	-159.792065	226.006719	189.439345	-130.417954	116.984874	213.730791	-69.947455	135.994536	991.476017	-441.567255	229.792687	979.143927	-437.447369	232.672290	1028.285795	-424.300001	300.335323	949.118933	-415.187552	392.649564	891.410176	-391.650518	334.306695	793.557273	-419.972977	305.406133	711.948126	-417.212680	274.161209	632.523329	-406.408815	357.562224	695.003370	-389.026052	229.379618	513.775352	-395.370112	178.743579	469.627936	-354.203333	454.993710	481.602628	-375.747490	350.762116	448.518005	-437.698161	-222.933860	893.435475	-249.854095	-12.112896	84.148177	-453.528274	-20.412759	81.077867	-53.752184	
